####
#
# OBJ File Generated by Meshlab
#
####
# Object simple_finger.obj
#
# Vertices: 10
# Faces: 16
#
####
vn 0.339792 0.686576 -0.642771
v 0.010360 0.026403 0.000155
vn -0.472622 0.489902 0.732546
v -0.008931 0.014205 0.054102
vn -0.587852 0.584458 -0.559319
v -0.010401 0.026309 0.000167
vn 0.786354 0.369012 0.495457
v 0.008616 0.013989 0.051328
vn 0.490633 -0.365559 0.790978
v 0.008549 -0.000285 0.053167
vn 0.803035 -0.530005 -0.272450
v 0.010674 0.002594 0.000187
vn -0.563555 0.816673 0.124306
v -0.010692 0.025173 0.019356
vn 0.569658 0.796134 0.204108
v 0.010400 0.025253 0.019037
vn -0.790733 -0.311149 -0.527189
v -0.010387 0.002534 0.000132
vn -0.364495 -0.854615 0.369834
v -0.006959 -0.000944 0.053496
# 10 vertices, 0 vertices normals

f 3//3 1//1 9//9
f 6//6 9//9 1//1
f 7//7 1//1 3//3
f 10//10 6//6 5//5
f 10//10 9//9 6//6
f 6//6 4//4 5//5
f 7//7 3//3 9//9
f 8//8 1//1 7//7
f 8//8 7//7 2//2
f 8//8 6//6 1//1
f 8//8 4//4 6//6
f 9//9 10//10 2//2
f 9//9 2//2 7//7
f 2//2 5//5 4//4
f 2//2 4//4 8//8
f 2//2 10//10 5//5
# 16 faces, 0 coords texture

# End of File
