####
#
# OBJ File Generated by Meshlab
#
####
# Object table.obj
#
# Vertices: 32
# Faces: 60
#
####
vn -1.570796 -4.712389 -1.570796
v 0.650000 0.000000 0.300000
vn 1.570797 -4.712389 -1.570797
v 0.350000 0.000000 0.300000
vn -1.570797 1.570796 -4.712389
v 0.650000 0.050000 0.300000
vn 1.570796 1.570796 -4.712391
v 0.350000 0.050000 0.300000
vn -4.712389 1.570796 -1.570796
v 0.300000 0.050000 0.300000
vn -4.712389 -1.570796 -1.570796
v 0.300000 0.450000 0.300000
vn 1.570796 -1.570796 -4.712389
v 0.350000 0.450000 0.300000
vn 4.712389 1.570796 -1.570796
v 0.700000 0.050000 0.300000
vn 4.712389 -1.570796 -1.570797
v 0.700000 0.450000 0.300000
vn -1.570796 -1.570796 -4.712389
v 0.650000 0.450000 0.300000
vn -1.570796 4.712389 -1.570796
v 0.650000 0.500000 0.300000
vn 1.570796 4.712389 -1.570796
v 0.350000 0.500000 0.300000
vn 1.570796 -1.570796 -1.570796
v 0.700000 0.450000 0.000000
vn 1.570796 1.570796 -1.570796
v 0.700000 0.500000 0.000000
vn 1.570796 1.570796 1.570796
v 0.700000 0.500000 0.400000
vn 1.570796 -1.570796 1.570796
v 0.700000 0.000000 0.400000
vn 1.570796 1.570796 -1.570796
v 0.700000 0.050000 0.000000
vn 1.570796 -1.570796 -1.570796
v 0.700000 0.000000 0.000000
vn 1.570796 1.570796 -1.570796
v 0.350000 0.500000 0.000000
vn -1.570796 1.570796 -1.570796
v 0.300000 0.500000 0.000000
vn -1.570796 1.570796 1.570796
v 0.300000 0.500000 0.400000
vn -1.570796 1.570796 -1.570796
v 0.650000 0.500000 0.000000
vn -1.570796 -1.570796 -1.570796
v 0.650000 0.450000 0.000000
vn -1.570796 1.570796 -1.570796
v 0.300000 0.050000 0.000000
vn -1.570797 -1.570796 -1.570796
v 0.300000 0.000000 0.000000
vn -1.570796 -1.570796 1.570796
v 0.300000 0.000000 0.400000
vn -1.570796 -1.570796 -1.570796
v 0.300000 0.450000 0.000000
vn -1.570797 -1.570796 -1.570796
v 0.650000 0.000000 0.000000
vn 1.570796 -1.570796 -1.570796
v 0.350000 0.000000 0.000000
vn 1.570796 -1.570796 -1.570796
v 0.350000 0.450000 0.000000
vn -1.570796 1.570796 -1.570796
v 0.650000 0.050000 0.000000
vn 1.570797 1.570796 -1.570796
v 0.350000 0.050000 0.000000
# 32 vertices, 0 vertices normals

f 1//1 2//2 3//3
f 3//3 2//2 4//4
f 5//5 6//6 4//4
f 4//4 6//6 7//7
f 8//8 3//3 9//9
f 9//9 3//3 4//4
f 9//9 4//4 10//10
f 10//10 4//4 7//7
f 10//10 7//7 11//11
f 11//11 7//7 12//12
f 13//13 14//14 9//9
f 9//9 14//14 15//15
f 9//9 15//15 8//8
f 8//8 15//15 16//16
f 8//8 16//16 17//17
f 17//17 16//16 18//18
f 19//19 20//20 12//12
f 12//12 20//20 21//21
f 12//12 21//21 11//11
f 11//11 21//21 15//15
f 11//11 15//15 22//22
f 22//22 15//15 14//14
f 10//10 11//11 23//23
f 23//23 11//11 22//22
f 9//9 10//10 13//13
f 13//13 10//10 23//23
f 23//23 22//22 13//13
f 13//13 22//22 14//14
f 24//24 25//25 5//5
f 5//5 25//25 26//26
f 5//5 26//26 6//6
f 6//6 26//26 21//21
f 6//6 21//21 27//27
f 27//27 21//21 20//20
f 28//28 18//18 1//1
f 1//1 18//18 16//16
f 1//1 16//16 2//2
f 2//2 16//16 26//26
f 2//2 26//26 29//29
f 29//29 26//26 25//25
f 16//16 15//15 26//26
f 26//26 15//15 21//21
f 7//7 6//6 30//30
f 30//30 6//6 27//27
f 12//12 7//7 19//19
f 19//19 7//7 30//30
f 19//19 30//30 20//20
f 20//20 30//30 27//27
f 3//3 8//8 31//31
f 31//31 8//8 17//17
f 1//1 3//3 28//28
f 28//28 3//3 31//31
f 28//28 31//31 18//18
f 18//18 31//31 17//17
f 4//4 2//2 32//32
f 32//32 2//2 29//29
f 5//5 4//4 24//24
f 24//24 4//4 32//32
f 32//32 29//29 24//24
f 24//24 29//29 25//25
# 60 faces, 0 coords texture

# End of File
